# xmcd
#
# Track frame offsets: 
#        150
#        18761
#        41845
#        56836
#        71012
#        88692
#        101337
#        114910
#        134372
#        151026
#
# Disc length: 2207 seconds
#
# Revision: 0
# Processed by: cddbd v1.5.2PL0 Copyright (c) Steve Scherf et al.
# Submitted via: ExactAudioCopyFreeDBPlugin 1.0
#
DISCID=79089d0a
DTITLE=Tomas Basso - Hurgando Entre Agenda y Ganas
DYEAR=2017
DGENRE=Blues
TTITLE0=She loves you
TTITLE1=Desafinado
TTITLE2=All my lovings
TTITLE3=Al otro lado del rio
TTITLE4=Creep
TTITLE5=A veces
TTITLE6=Hurgando entre agenda y ganas
TTITLE7=Terruno
TTITLE8=Pedazo de vida
TTITLE9=Candombe para mi amigo
EXTD=
EXTT0=
EXTT1=
EXTT2=
EXTT3=
EXTT4=
EXTT5=
EXTT6=
EXTT7=
EXTT8=
EXTT9=
PLAYORDER=
